<svg width="567" height="567" viewBox="0 0 567 567" fill="none" xmlns="http://www.w3.org/2000/svg">
<path d="M283.5 567C440.073 567 567 440.073 567 283.5C567 126.927 440.073 0 283.5 0C126.927 0 0 126.927 0 283.5C0 440.073 126.927 567 283.5 567Z" fill="#FFE738"/>
<path d="M383.535 348.855L369.527 345.102C372.261 338.999 374.631 332.432 376.492 325.485L383.999 297.47L289.362 272.112L280.513 305.138L334.266 319.541C332.718 324.863 330.692 329.691 328.302 334.055L276.485 320.171L271.297 339.531L313.776 350.913C300.45 361.013 282.356 363.855 261.744 358.332C222.682 347.865 203.762 311.426 217.92 258.584C231.988 206.084 267.018 184.223 304.713 194.324C332.842 201.861 347.946 222.02 348.841 248.746L391.889 260.281C396.981 212.578 365.894 170.071 314.305 156.248C253.264 139.892 195.46 172.495 175.32 247.658C155.546 321.454 187.01 378.953 251.354 396.194C295.086 407.911 335.184 395.831 358.987 363.028L378.347 368.215L383.535 348.855Z" fill="black"/>
<path d="M265.781 36.0604C142.902 44.7326 44.7326 142.902 36.0604 265.781H71.6026C80.1244 162.484 162.484 80.1244 265.781 71.6026V36.0604Z" fill="#A39424"/>
<path d="M301.219 71.6026C404.515 80.1245 486.875 162.484 495.397 265.781H530.939C522.267 142.902 424.098 44.7326 301.219 36.0604V71.6026Z" fill="#A39424"/>
<path d="M530.939 301.219H495.397C486.875 404.515 404.515 486.875 301.219 495.397V530.939C424.098 522.267 522.267 424.098 530.939 301.219Z" fill="#A39424"/>
<path d="M265.781 530.939V495.397C162.484 486.875 80.1244 404.515 71.6026 301.219H36.0604C44.7326 424.098 142.902 522.267 265.781 530.939Z" fill="#A39424"/>
</svg>
