<svg id="Layer_1" enable-background="new 0 0 512 512" height="512" viewBox="0 0 512 512" width="512" xmlns="http://www.w3.org/2000/svg"><g><path d="m45.592 116.628 211.342-104.575 213.538 113.351-2.194 262.534-211.344 108.962-217.924-108.231z" fill="#273863"/><path d="m255.98 12.526v483.9l.954.474 211.344-108.962 2.194-262.534-213.538-113.351z" fill="#0a0a33"/><g><path d="m372.922 256.898v-.592c0-43.647-24.519-83.593-63.438-103.352l-2.028-1.029c-32.453-16.475-70.76-16.752-103.446-.745-39.74 19.46-64.932 59.848-64.932 104.097v1.665c0 43.935 24.84 84.092 64.151 103.711l.968.484c32.568 16.254 70.881 16.264 103.458.029l1.059-.528c39.343-19.608 64.208-59.782 64.208-103.74z" fill="#ff6689"/></g><path d="m309.484 152.948-2.028-1.029c-16.178-8.213-33.811-12.399-51.476-12.55v233.958c17.702-.004 35.404-4.059 51.675-12.168l1.058-.528c39.342-19.607 64.208-59.782 64.208-103.739v-.592c.001-43.647-24.518-83.593-63.437-103.352z" fill="#ff008d"/><path d="m486.772 124.846c0-9.425-8.223-13.535-8.223-13.535l-215.899-109.613c-4.206-2.136-9.17-2.172-13.405-.097l-215.601 105.579c-8.74 4.28-8.415 13.476-8.415 13.476v.013 268.781c0 5.694 3.219 10.898 8.313 13.44l215.602 107.598s6.628 3.381 13.408.002l215.9-107.598c5.099-2.54 8.321-7.746 8.321-13.443v-264.574m-231.043-93.071 183.408 93.114-183.159 97.09-183.144-100.639zm-200.46 114.189 185.561 101.967v224.737l-185.561-92.606zm215.601 326.719v-224.598l185.859-98.522v230.492z" fill="#7c82ef"/><path d="m486.817 124.774c0-9.793-8.223-13.536-8.223-13.536l-215.9-109.612c-2.096-1.064-4.381-1.606-6.67-1.626v31.93l183.157 92.987-183.157 97.089v289.986c3.67 0 6.572-1.572 6.572-1.572l215.9-107.598c5.099-2.54 8.321-7.746 8.321-13.443v-264.576m-30.042 255.28-185.86 92.628v-224.599l185.859-98.522v230.492h.001z" fill="#434ae7"/></g></svg>