<svg id="Capa_1" enable-background="new 0 0 512 512" height="512" viewBox="0 0 512 512" width="512" xmlns="http://www.w3.org/2000/svg"><g><circle cx="256" cy="267" fill="#fee903" r="245"/><path d="m228.992 78.188c6.617-7.468 16.269-12.188 27.008-12.188 11.186 0 21.199 5.115 27.824 13.13 2.93-4.432 5.314-9.219 7.085-14.231l-32.472-63.806c-.84-1.651-3.28-1.371-3.724.428l-4.217 17.086c-4.292 17.386-11.823 33.806-22.2 48.401l-3.138 4.413c1.19 2.304 2.472 4.559 3.834 6.767z" fill="#fe9901"/><path d="m228.992 78.188c6.224-7.025 15.134-11.617 25.108-12.137 7.961-11.393 14.21-23.868 18.546-37.037l-14.209-27.92c-.84-1.651-3.28-1.371-3.724.428l-4.217 17.086c-4.292 17.386-11.823 33.806-22.2 48.401l-3.138 4.413c1.19 2.303 2.472 4.558 3.834 6.766z" fill="#fb8801"/><g fill="#f4d902"><path d="m176.368 391.711c-.119-28.141 14.183-53.7 38.257-68.371 3.26-1.987 5.284-5.585 5.284-9.39v-211.859c0-8.241 2.783-15.841 7.45-21.924-90.673 13.843-160.359 92.353-160.359 186.833 0 84.648 55.937 156.478 132.789 180.466-14.358-14.397-23.33-34.158-23.421-55.755z"/><path d="m284.641 80.167c4.667 6.082 7.45 13.682 7.45 21.924v211.859c0 3.81 2.002 7.394 5.224 9.353 23.994 14.592 38.318 40.037 38.318 68.064 0 21.109-8.166 40.957-22.988 55.958 76.627-24.124 132.355-95.836 132.355-180.325 0-94.48-69.686-172.99-160.359-186.833z"/></g><g><g><path d="m163.751 132.693c.971-6.171 3.075-12.216 6.338-17.869l13.118-22.72c-3.88-5.452-6.65-11.638-8.102-18.213l-4.465-20.215c-.394-1.782-2.772-2.149-3.685-.569l-42.849 74.217c-9.046 15.668-8.967 33.089-2.497 47.549 11.347-16.502 25.65-30.818 42.142-42.18z" fill="#fe9901"/><path d="m139.022 153.611c-.025-8.778 2.177-17.789 7.083-26.287l29.567-51.212c-.199-.738-.403-1.473-.568-2.221l-4.465-20.215c-.394-1.782-2.772-2.149-3.685-.569l-42.849 74.217c-9.046 15.668-8.967 33.089-2.497 47.549 5.207-7.573 11.037-14.684 17.414-21.262z" fill="#fb8801"/><path d="m341.911 114.824c3.264 5.653 5.367 11.698 6.338 17.869 16.491 11.362 30.795 25.678 42.143 42.18 6.47-14.46 6.549-31.881-2.497-47.549l-42.704-73.965c-.93-1.611-3.365-1.19-3.699.64l-.989 5.401c-2.061 11.259-6.286 21.96-12.382 31.54z" fill="#fe9901"/><path d="m338.561 109.022 5.776-6.424c6.436-7.158 11.617-15.288 15.401-24.043l-14.547-25.196c-.93-1.611-3.365-1.19-3.699.64l-.989 5.401c-2.061 11.259-6.286 21.96-12.382 31.54z" fill="#fb8801"/></g></g><g><g><g><path d="m176.368 391.711c-.119-28.141 14.183-53.7 38.257-68.371 3.26-1.987 5.284-5.585 5.284-9.39v-206.94c-73.124 16.487-127.909 81.957-127.909 159.99 0 62.655 35.323 117.206 87.095 144.812-1.741-6.436-2.698-13.172-2.727-20.101z" fill="#ffface"/></g><g><path d="m292.091 107.01v206.94c0 3.81 2.002 7.394 5.224 9.353 23.994 14.592 38.318 40.037 38.318 68.064 0 6.982-.91 13.822-2.641 20.399 51.725-27.62 87.008-82.147 87.008-144.766 0-78.033-54.785-143.503-127.909-159.99z" fill="#ffface"/></g></g></g><g><g><path d="m219.909 133.791v-31.7c0-9.532 3.721-18.207 9.779-24.665-5.728-9.336-9.937-19.565-12.406-30.314l-1.496-6.509c-.407-1.771-2.773-2.125-3.681-.552l-42.881 74.273c-9.031 15.643-8.967 33.033-2.528 47.479 15.588-13.249 33.753-22.75 53.213-28.012z" fill="#fe646f"/></g><g><path d="m188.336 146.716c-1.298-10.641.658-21.908 6.711-32.392l28.289-48.999c-2.579-5.846-4.614-11.941-6.055-18.213l-1.496-6.509c-.407-1.771-2.773-2.125-3.681-.552l-42.881 74.273c-9.031 15.643-8.967 33.033-2.528 47.479 6.764-5.748 14.012-10.789 21.641-15.087z" fill="#fd4755"/></g><g><path d="m292.091 102.091v31.709c19.59 5.298 37.757 14.848 53.22 27.988 6.432-14.443 6.494-31.827-2.534-47.464l-42.93-74.357c-.902-1.562-3.248-1.226-3.675.526l-4.384 17.977c-1.73 7.094-4.661 13.813-8.639 19.881 5.561 6.35 8.942 14.655 8.942 23.74z" fill="#fe646f"/></g><g><path d="m291.827 97.801 10.633-11.887c5.316-5.943 9.454-12.814 12.227-20.243l-14.841-25.705c-.902-1.562-3.248-1.226-3.675.526l-4.384 17.977c-1.73 7.094-4.661 13.813-8.639 19.881 4.673 5.336 7.798 12.052 8.679 19.451z" fill="#fd4755"/></g></g><g><g fill="#0593fc"><path d="m292.091 245.182c1.638-.923 3.524-1.455 5.535-1.455h24.646c7.346 0 13.322-5.977 13.322-13.322v-1.761c0-7.346-5.977-13.322-13.322-13.322h-14.083c-6.243 0-11.323-5.08-11.323-11.323v-1.76c0-6.243 5.08-11.323 11.323-11.323h62.952l.536-1c-18.474-27.668-46.613-48.325-79.586-57.169z"/><path d="m171.396 203.999c0 7.832 6.371 14.203 14.203 14.203h34.311v-28.405h-34.311c-7.832-.001-14.203 6.37-14.203 14.202z"/><path d="m214.625 323.34c3.26-1.987 5.284-5.585 5.284-9.39v-71.344h-99.75l-1.189 1c-1.289 7.606-1.97 15.42-1.97 23.393 0 47.412 23.744 89.272 59.983 114.36 2.971-23.97 16.558-45.17 37.642-58.019z"/><path d="m391.247 294.538h-99.156v19.412c0 3.81 2.002 7.394 5.224 9.353 10.322 6.277 18.848 14.566 25.22 24.202.01-.213.032-.423.032-.638v-1.76c0-6.243 5.08-11.323 11.323-11.323h42.897l1.677-1c6.209-11.536 10.843-24.045 13.597-37.246z"/><path d="m219.909 165.39v-32.656c-21.804 5.847-41.492 16.864-57.671 31.656l.389 1z"/></g><g fill="#0182fc"><path d="m219.909 145.816v-13.082c-21.804 5.847-41.492 16.864-57.671 31.656h32.015c7.79-7.119 16.396-13.359 25.656-18.574z"/><path d="m183.389 358.512c-21.408-24.448-34.389-56.461-34.389-91.512 0-7.973.676-15.788 1.965-23.393h-31.995c-1.289 7.606-1.97 15.42-1.97 23.393 0 47.412 23.744 89.272 59.983 114.36.991-7.995 3.17-15.677 6.406-22.848z"/></g><path d="m219.909 217.201h-34.311c-7.292 0-13.203-5.911-13.203-13.203s5.911-13.203 13.203-13.203h34.311v-26.405h-57.671c-22.344 20.429-37.987 48.059-43.268 79.217h100.939z" fill="#bbf49b"/><path d="m118.97 243.607h31.995c5.282-31.162 20.938-58.789 43.288-79.217h-32.015c-22.344 20.429-37.987 48.059-43.268 79.217z" fill="#6fd7a3"/><g fill="#bbf49b"><path d="m198.697 291.15h-18.484c-7.292 0-13.203-5.911-13.203-13.203 0-7.292 5.911-13.203 13.203-13.203h18.484c7.292 0 13.203 5.911 13.203 13.203 0 7.292-5.911 13.203-13.203 13.203z"/><path d="m183 321.203c0-7.292-5.911-13.203-13.203-13.203h-9.187c-7.292 0-13.203 5.911-13.203 13.203s5.911 13.203 13.203 13.203h9.187c7.292 0 13.203-5.911 13.203-13.203z"/><path d="m371.677 189.916h-63.488c-6.806 0-12.323 5.517-12.323 12.323v1.76c0 6.805 5.517 12.323 12.323 12.323h14.083c6.805 0 12.323 5.517 12.323 12.323v1.76c0 6.806-5.517 12.323-12.323 12.323h-24.645c-1.993 0-3.869.484-5.535 1.324v51.487h99.971c1.921-9.213 2.937-18.757 2.937-28.539 0-28.517-8.593-55.024-23.323-77.084z"/><path d="m333.889 332.783c-6.805 0-12.323 5.517-12.323 12.323v.962c7.209 10.396 11.852 22.449 13.445 35.295 18.047-12.493 32.993-29.148 43.453-48.58z"/></g><path d="m184.011 277.947c0-7.292 5.911-13.203 13.203-13.203h-17c-7.292 0-13.203 5.911-13.203 13.203s5.911 13.203 13.203 13.203h17c-7.292 0-13.203-5.911-13.203-13.203z" fill="#6fd7a3"/><path d="m160 321.203c0-6.713 5.015-12.244 11.5-13.081-.559-.072-1.124-.122-1.703-.122h-9.187c-7.292 0-13.203 5.911-13.203 13.203s5.911 13.203 13.203 13.203h9.187c.578 0 1.144-.05 1.703-.122-6.485-.838-11.5-6.368-11.5-13.081z" fill="#6fd7a3"/><path d="m333.889 332.783c-6.805 0-12.323 5.517-12.323 12.323v.962c2.786 4.017 5.188 8.282 7.18 12.744 5.365-1.333 9.348-6.168 9.348-11.946v-1.76c0-6.806 5.517-12.323 12.323-12.323z" fill="#6fd7a3"/><path d="m292.091 179h10.707c7.292 0 13.203-5.911 13.203-13.203s-5.911-13.203-13.203-13.203h-10.707z" fill="#bbf49b"/></g><g><g><path d="m297.834 322.448c-2.96-1.8-4.743-5.034-4.743-8.499v-211.858c0-20.485-16.606-37.091-37.091-37.091-20.485 0-37.091 16.606-37.091 37.091v211.859c0 3.49-1.825 6.72-4.805 8.536-23.315 14.208-38.86 39.901-38.736 69.229.183 43.394 35.298 79.236 78.68 80.261 45.424 1.073 82.585-35.428 82.585-80.609 0-29.209-15.543-54.775-38.799-68.919z" fill="#fff"/><path d="m192.001 399.716c-.124-29.329 15.421-55.021 38.736-69.229 2.98-1.816 4.805-5.046 4.805-8.536v-211.86c0-20.485 16.606-37.091 37.091-37.091 2.478 0 4.898.248 7.24.711-6.453-5.432-14.778-8.711-23.873-8.711-20.485 0-37.091 16.606-37.091 37.091v211.859c0 3.49-1.825 6.72-4.805 8.536-23.314 14.208-38.86 39.901-38.736 69.229.148 34.931 22.938 64.953 54.447 75.875-22.592-14.282-37.694-39.457-37.814-67.874z" fill="#f2fbff"/><path d="m268.901 336.43v-132.742l-1.485-1h-22.833l-1.485 1v132.742c-24.923 5.853-43.542 28.255-43.542 54.938 0 31.122 25.32 56.443 56.443 56.443s56.443-25.321 56.443-56.443c.001-26.683-18.618-49.085-43.541-54.938z" fill="#fe9901"/><path d="m243.099 203.688v132.742c-24.923 5.853-43.542 28.255-43.542 54.938 0 17.97 8.452 33.994 21.578 44.338-8.193-9.8-13.135-22.406-13.135-36.149 0-24.278 15.413-45.012 36.965-52.961 3.942-1.454 6.577-5.186 6.577-9.387v-133.521z" fill="#fb8801"/><circle cx="256" cy="391.367" fill="#fe646f" r="25.802"/><path d="m247 391.367c0-11.286 7.287-20.897 17.401-24.391-2.635-.91-5.46-1.412-8.401-1.412-14.227 0-25.803 11.575-25.803 25.802s11.576 25.804 25.803 25.804c2.941 0 5.766-.501 8.401-1.412-10.114-3.494-17.401-13.104-17.401-24.391z" fill="#fd4755"/><path d="m256 89.19c-7.114 0-12.901 5.788-12.901 12.901v101.597h25.802v-101.597c0-7.114-5.787-12.901-12.901-12.901z" fill="#fe646f"/><path d="m260.049 89.85c-1.275-.423-2.634-.661-4.049-.661-7.114 0-12.901 5.788-12.901 12.901v101.597h8.099v-101.596c0-5.698 3.717-10.537 8.851-12.241z" fill="#fd4755"/></g><g fill="#c8effe"><path d="m293.091 283h-7.091c-4.142 0-7.5 3.358-7.5 7.5s3.358 7.5 7.5 7.5h7.091z"/><path d="m278.5 256c0 4.142 3.358 7.5 7.5 7.5h7.091v-15h-7.091c-4.142 0-7.5 3.358-7.5 7.5z"/><path d="m278.5 152.5c0 4.142 3.358 7.5 7.5 7.5h7.091v-15h-7.091c-4.142 0-7.5 3.358-7.5 7.5z"/><path d="m278.5 221.5c0 4.142 3.358 7.5 7.5 7.5h7.091v-15h-7.091c-4.142 0-7.5 3.358-7.5 7.5z"/><path d="m278.5 187c0 4.142 3.358 7.5 7.5 7.5h7.091v-15h-7.091c-4.142 0-7.5 3.358-7.5 7.5z"/></g></g></g></svg>