<svg id="Layer_1" enable-background="new 0 0 512.012 512.012" height="512" viewBox="0 0 512.012 512.012" width="512" xmlns="http://www.w3.org/2000/svg"><g><path d="m437.03 74.983c-48.354-48.354-112.642-74.983-181.024-74.983s-132.671 26.629-181.024 74.983-74.982 112.641-74.982 181.023 26.629 132.67 74.982 181.023 112.642 74.982 181.024 74.982 132.67-26.629 181.023-74.982 74.982-112.642 74.982-181.023-26.628-132.67-74.981-181.023z" fill="#273863"/><path d="m256.355 0v512.003c68.251-.091 132.403-26.707 180.674-74.978 48.354-48.354 74.982-112.642 74.982-181.023s-26.629-132.67-74.982-181.023c-48.27-48.272-112.422-74.888-180.674-74.979z" fill="#0a0a33"/><path d="m226.045 69.972h59.909v59.909h-59.909z" fill="#4dffff"/><path d="m285.955 144.881h-59.909c-8.284 0-15-6.716-15-15v-59.909c0-8.284 6.716-15 15-15h59.909c8.284 0 15 6.716 15 15v59.909c0 8.284-6.716 15-15 15zm-44.91-30h29.909v-29.909h-29.909z" fill="#7c82ef"/><path d="m226.045 382.093h59.909v59.909h-59.909z" fill="#4dffff"/><path d="m285.955 457.002h-59.909c-8.284 0-15-6.716-15-15v-59.909c0-8.284 6.716-15 15-15h59.909c8.284 0 15 6.716 15 15v59.909c0 8.284-6.716 15-15 15zm-44.91-30h29.909v-29.909h-29.909z" fill="#7c82ef"/><g><g><path d="m382.106 226.046h59.909v59.909h-59.909z" fill="#00ddc1" transform="matrix(0 1 -1 0 668.061 -156.06)"/><path d="m442.015 300.955h-59.909c-8.284 0-15-6.716-15-15v-59.91c0-8.284 6.716-15 15-15h59.909c8.284 0 15 6.716 15 15v59.91c0 8.285-6.716 15-15 15zm-44.909-30h29.909v-29.91h-29.909z" fill="#434ae7"/></g><g><path d="m69.985 226.046h59.909v59.909h-59.909z" fill="#4dffff" transform="matrix(0 1 -1 0 355.94 156.061)"/><path d="m129.895 300.955h-59.91c-8.284 0-15-6.716-15-15v-59.91c0-8.284 6.716-15 15-15h59.91c8.284 0 15 6.716 15 15v59.91c0 8.285-6.716 15-15 15zm-44.91-30h29.91v-29.91h-29.91z" fill="#7c82ef"/></g></g><g><g><path d="m336.397 115.694h59.909v59.909h-59.909z" fill="#00ddc1" transform="matrix(.707 .707 -.707 .707 210.291 -216.39)"/><path d="m366.351 203.011c-3.839 0-7.678-1.465-10.606-4.394l-42.362-42.362c-5.858-5.857-5.858-15.355 0-21.213l42.362-42.362c5.857-5.857 15.355-5.857 21.213 0l42.362 42.362c5.858 5.857 5.858 15.355 0 21.213l-42.362 42.362c-2.929 2.929-6.768 4.394-10.607 4.394zm-21.149-57.362 21.149 21.149 21.149-21.149-21.149-21.149z" fill="#434ae7"/></g><g><path d="m115.694 336.397h59.909v59.909h-59.909z" fill="#4dffff" transform="matrix(.707 .707 -.707 .707 301.709 4.313)"/><path d="m145.649 423.714c-3.839 0-7.678-1.465-10.606-4.394l-42.363-42.362c-2.813-2.812-4.394-6.628-4.394-10.606s1.581-7.794 4.394-10.606l42.363-42.362c5.858-5.857 15.355-5.859 21.213 0l42.362 42.362c5.858 5.857 5.858 15.355 0 21.213l-42.362 42.362c-2.929 2.928-6.768 4.393-10.607 4.393zm-21.149-57.362 21.149 21.149 21.149-21.149-21.149-21.149z" fill="#7c82ef"/></g></g><g><g><path d="m336.397 336.397h59.909v59.909h-59.909z" fill="#00ddc1" transform="matrix(-.707 .707 -.707 -.707 884.451 366.352)"/><path d="m366.351 423.714c-3.839 0-7.678-1.465-10.606-4.394l-42.362-42.362c-5.858-5.857-5.858-15.355 0-21.213l42.362-42.362c5.857-5.857 15.355-5.857 21.213 0l42.362 42.362c5.858 5.857 5.858 15.355 0 21.213l-42.362 42.362c-2.929 2.929-6.768 4.394-10.607 4.394zm-21.149-57.362 21.149 21.149 21.149-21.149-21.149-21.149z" fill="#434ae7"/></g><g><path d="m115.694 115.694h59.909v59.909h-59.909z" fill="#4dffff" transform="matrix(-.707 .707 -.707 -.707 351.627 145.649)"/><path d="m145.649 203.011c-3.839 0-7.678-1.465-10.606-4.394l-42.363-42.362c-2.813-2.812-4.394-6.628-4.394-10.606s1.581-7.794 4.394-10.606l42.363-42.362c5.858-5.858 15.355-5.858 21.213 0l42.362 42.362c5.858 5.857 5.858 15.355 0 21.213l-42.362 42.362c-2.929 2.928-6.768 4.393-10.607 4.393zm-21.149-57.362 21.149 21.149 21.149-21.149-21.149-21.149z" fill="#7c82ef"/></g></g><circle cx="256" cy="256" fill="#ff6689" r="48.815"/><path d="m256.355 207.185v97.612c26.795-.192 48.46-21.965 48.46-48.806s-21.664-48.614-48.46-48.806z" fill="#ff008d"/><path d="m256.355 382.093h29.599v59.909h-29.599z" fill="#00ddc1"/><g fill="#434ae7"><path d="m285.955 54.972h-29.599v30h14.599v29.909h-14.599v30h29.599c8.284 0 15-6.716 15-15v-59.909c0-8.284-6.716-15-15-15z"/><path d="m285.955 367.093h-29.599v30h14.599v29.909h-14.599v30h29.599c8.284 0 15-6.716 15-15v-59.909c0-8.284-6.716-15-15-15z"/></g></g></svg>