<svg id="Layer_1" data-name="Layer 1" xmlns="http://www.w3.org/2000/svg" viewBox="0 0 512 512"><title>circle-dots</title><path d="M0,256C0,114.61,114.61,0,256,0S512,114.63,512,256,397.38,512,256,512,0,397.39,0,256Z" fill="#ff352e"/><path d="M287.41,145.36A31.41,31.41,0,1,1,256,113.95,31.41,31.41,0,0,1,287.41,145.36Z" fill="#fff"/><path d="M287.41,366.65A31.41,31.41,0,1,1,256,335.23,31.41,31.41,0,0,1,287.41,366.65Z" fill="#fff"/><path d="M366.65,287.41A31.41,31.41,0,1,1,398.05,256,31.42,31.42,0,0,1,366.65,287.41Z" fill="#fff"/><circle cx="145.35" cy="256" r="31.41" fill="#fff"/><path d="M356.45,200a31.41,31.41,0,1,1,0-44.4A31.39,31.39,0,0,1,356.45,200Z" fill="#fff"/><path d="M200,356.45A31.41,31.41,0,1,1,200,312,31.41,31.41,0,0,1,200,356.45Z" fill="#fff"/><path d="M312,356.46a31.41,31.41,0,1,1,44.42,0A31.42,31.42,0,0,1,312,356.46Z" fill="#fff"/><path d="M155.55,200A31.41,31.41,0,1,1,200,200,31.41,31.41,0,0,1,155.55,200Z" fill="#fff"/></svg>