<svg id="Capa_1" enable-background="new 0 0 512 512" height="512" viewBox="0 0 512 512" width="512" xmlns="http://www.w3.org/2000/svg"><g><path d="m256 22c-135.31 0-245 109.69-245 245 0 46.08 12.731 89.183 34.854 126l1.146 1h230.168l1.281-1c4.968-18.616 22.24-32 41.551-32h43.102l.258-.611c6.77-16.031 22.33-26.389 39.64-26.389h65c7.275 0 14.448 1.879 20.816 5.431l1.396-.36c7.007-22.786 10.788-46.986 10.788-72.071 0-135.31-109.69-245-245-245z" fill="#a8d3d8"/><g><path d="m255 168c-13.391 0-25.309 6.275-33 16.036-7.691-9.761-19.609-16.036-33-16.036-21.625 0-39.426 16.346-41.739 37.356 4.315-1.527 8.943-2.356 13.739-2.356 12.635 0 24.376 5.706 32.214 15.655l.786.997.786-.997c7.838-9.949 19.579-15.655 32.214-15.655 6.276 0 12.293 1.387 17.903 4.126l.32 1.446 17.088-29.597c.712-1.234 2.039-2 3.464-2h6.983v-2.945c0-.689.05-1.366.123-2.037-5.426-2.557-11.485-3.993-17.881-3.993z" fill="#ffe5de"/></g><path d="m179.168 234c1.424 0 2.752.767 3.464 2l23.378 40.491 40.289-69.782c-5.779-3.001-12.336-4.709-19.299-4.709-13.391 0-25.309 6.275-33 16.036-7.691-9.761-19.609-16.036-33-16.036-19.749 0-36.305 13.634-40.792 32z" fill="#fff3de"/><g><path d="m183.498 235.5c-.893-1.547-2.544-2.5-4.33-2.5h-67.977c-1.786 0-3.437.953-4.33 2.5l-75.158 130.178c4.157 9.433 8.884 18.557 14.151 27.322l1.146 1h228.008z" fill="#537983"/><path d="m127 262.765v-23.765c0-3.314-2.686-6-6-6h-2.73-7.079c-1.786 0-3.437.953-4.33 2.5l-75.158 130.178c4.157 9.433 8.884 18.557 14.151 27.322l1.146 1h10l72.601-125.749c-1.59-1.292-2.601-3.302-2.601-5.486z" fill="#596c76"/><path d="m348.043 110.345-.785-.997-.785.997c-7.84 9.949-19.581 15.655-32.215 15.655-12.635 0-24.376-5.706-32.215-15.655l-.785-.997-.785.997c-1.585 2.011-3.336 3.84-5.215 5.492v48.895c2.522-4.332 6.763-7.508 11.871-8.445 1.037-.19 2.09-.287 3.128-.287 2.075 0 4.14.38 6.136 1.129l.841.315.403-.801c2.999-5.948 8.984-9.643 15.621-9.643 7.233 0 13.623 4.359 16.276 11.105l.39.989.963-.449c2.345-1.092 4.825-1.646 7.371-1.646 6.369 0 11.938 3.432 15 8.532v-49.695c-1.879-1.651-3.63-3.48-5.215-5.491z" fill="#fff"/><path d="m295 121.199c-4.945-2.633-9.363-6.293-12.957-10.854l-.785-.997-.785.997c-1.585 2.011-3.336 3.84-5.215 5.492v48.895c2.522-4.332 6.763-7.508 11.871-8.445 1.037-.19 2.09-.287 3.128-.287 1.596 0 3.186.23 4.743.675z" fill="#f2fbff"/><g><path d="m278.449 393c4.968-18.616 22.24-32 41.551-32h43.102l.258-.611c6.77-16.031 22.33-26.389 39.64-26.389h53.863l-89.792-155.524c-.893-1.547-2.544-2.5-4.33-2.5h-96.967c-1.786 0-3.437.953-4.33 2.5l-124.433 215.524h141.438z" fill="#596c76"/></g><path d="m468 333h-65c-18.182 0-33.878 11.178-40.562 27h-42.438c-20.761 0-38.272 14.578-42.832 34h187.832l1.146-1c10.079-16.775 18.202-34.857 24.066-53.929-6.531-3.849-14.123-6.071-22.212-6.071z" fill="#678d98"/><g fill="#537983"><path d="m424.788 333h-21.788c-18.182 0-33.878 11.178-40.562 27h18.601c1.91 0 3.625-1.103 4.49-2.805 7.279-14.322 22.171-24.195 39.259-24.195z"/><path d="m341.788 360h-21.788c-20.761 0-38.272 14.578-42.832 34h21.788c4.56-19.422 22.07-34 42.832-34z"/></g><path d="m170.73 394 101.028-174.985v-43.039h-5.983c-1.786 0-3.437.953-4.33 2.5l-124.434 215.524z" fill="#465a61"/><g><path d="m248.257 44c12.634 0 24.375 5.706 32.215 15.655l.785.997.785-.997c7.84-9.949 19.581-15.655 32.216-15.655 12.634 0 24.375 5.706 32.215 15.655l.785.997.785-.997c7.839-9.949 19.58-15.655 32.215-15.655 3.051 0 6.021.345 8.883.98.069-.986.117-1.977.117-2.98 0-23.196-18.804-42-42-42-13.391 0-25.309 6.275-33 16.036-7.691-9.761-19.609-16.036-33-16.036-23.196 0-42 18.804-42 42 0 1.003.048 1.995.117 2.98 2.862-.635 5.832-.98 8.882-.98z" fill="#ffe5de"/><path d="m248.257 44c5.623 0 11.067 1.137 16.071 3.268-.216-1.726-.328-3.484-.328-5.268 0-18.885 12.465-34.856 29.615-40.141-3.907-1.204-8.055-1.859-12.357-1.859-23.196 0-42 18.804-42 42 0 1.003.048 1.995.117 2.98 2.862-.635 5.832-.98 8.882-.98z" fill="#feccbc"/><path d="m380.258 43c-13.391 0-25.309 6.275-33 16.036-7.691-9.761-19.609-16.036-33-16.036s-25.309 6.275-33 16.036c-7.691-9.761-19.609-16.036-33-16.036-23.196 0-42 18.804-42 42s18.804 42 42 42c13.391 0 25.309-6.275 33-16.036 7.691 9.761 19.609 16.036 33 16.036s25.309-6.275 33-16.036c7.691 9.761 19.609 16.036 33 16.036 23.196 0 42-18.804 42-42s-18.804-42-42-42z" fill="#fff3de"/><g><path d="m231 85c0-18.885 12.465-34.856 29.615-40.141-3.907-1.204-8.055-1.859-12.357-1.859-23.196 0-42 18.804-42 42s18.804 42 42 42c4.303 0 8.45-.655 12.357-1.859-17.15-5.285-29.615-21.256-29.615-40.141z" fill="#ffe5de"/></g></g><path d="m356.758 174.5c0-10.217-8.283-18.5-18.5-18.5-2.788 0-5.422.635-7.793 1.739-2.702-6.869-9.379-11.739-17.207-11.739-7.226 0-13.468 4.152-16.513 10.192-2.977-1.117-6.298-1.531-9.796-.889-8.9 1.632-15.191 9.679-15.191 18.727v67.351c0 4.439 3.349 8.314 7.779 8.601 4.854.314 8.888-3.529 8.888-8.315v-40.326c0-4.438 3.349-8.314 7.779-8.601 4.853-.314 8.888 3.529 8.888 8.315v18.326c0 4.438 3.349 8.314 7.779 8.601 4.854.314 8.888-3.529 8.888-8.315v-33.691c0-5.523 4.477-10 10-10h24.925c.038-.489.074-.978.074-1.476z" fill="#fe646f"/><g><path d="m280 246.381v-67.351c0-9.048 6.291-17.096 15.191-18.728 2.703-.496 5.301-.361 7.716.241 1.201.3 2.477-.181 3.159-1.215 3.307-5.015 8.978-8.33 15.434-8.33 1.776 0 3.489.262 5.114.73-3.364-3.526-8.097-5.73-13.356-5.73-7.226 0-13.468 4.152-16.513 10.192-2.977-1.116-6.298-1.531-9.796-.889-8.9 1.632-15.191 9.679-15.191 18.728v65.078c0 3.29 1.236 6.506 3.59 8.804 2.064 2.015 3.786 2.181 5.422 2.048-.491-1.1-.77-2.314-.77-3.578z" fill="#fd4755"/></g><path d="m280.091 282c4.602 0 8.333-3.731 8.333-8.333v-5.333c0-4.602-3.731-8.333-8.333-8.333-4.602 0-8.333 3.731-8.333 8.333v5.333c0 4.602 3.73 8.333 8.333 8.333z" fill="#fe646f"/><path d="m280 273.667v-5.333c0-3.102 1.698-5.802 4.212-7.237-1.216-.694-2.621-1.096-4.121-1.096-4.602 0-8.333 3.731-8.333 8.333v5.333c0 4.602 3.731 8.333 8.333 8.333 1.501 0 2.905-.402 4.121-1.096-2.514-1.435-4.212-4.136-4.212-7.237z" fill="#fd4755"/><path d="m139.667 301c4.602 0 8.333-3.731 8.333-8.333v-5.333c0-4.602-3.731-8.333-8.333-8.333-4.602 0-8.333 3.731-8.333 8.333v5.333c-.001 4.602 3.73 8.333 8.333 8.333z" fill="#fe9901"/><path d="m140 292.667v-5.333c0-3.013 1.604-5.644 4-7.108-1.264-.772-2.744-1.225-4.333-1.225-4.602 0-8.333 3.731-8.333 8.333v5.333c0 4.602 3.731 8.333 8.333 8.333 1.589 0 3.07-.453 4.333-1.225-2.396-1.464-4-4.095-4-7.108z" fill="#fb8801"/><path d="m344.924 220c4.602 0 8.333-3.731 8.333-8.333v-5.333c0-4.602-3.731-8.333-8.333-8.333-4.602 0-8.333 3.731-8.333 8.333v5.333c0 4.602 3.731 8.333 8.333 8.333z" fill="#fe646f"/><path d="m345 211.667v-5.333c0-3.067 1.662-5.74 4.129-7.186-1.235-.724-2.669-1.147-4.205-1.147-4.602 0-8.333 3.731-8.333 8.333v5.333c0 4.602 3.731 8.333 8.333 8.333 1.536 0 2.969-.423 4.205-1.147-2.467-1.447-4.129-4.12-4.129-7.186z" fill="#fd4755"/><path d="m330.591 260c4.602 0 8.333-3.731 8.333-8.333v-5.333c0-4.602-3.731-8.333-8.333-8.333-4.602 0-8.333 3.731-8.333 8.333v5.333c0 4.602 3.73 8.333 8.333 8.333z" fill="#fe646f"/><path d="m330.333 251.667v-5.333c0-3.137 1.735-5.866 4.296-7.288-1.197-.664-2.572-1.046-4.038-1.046-4.602 0-8.333 3.731-8.333 8.333v5.333c0 4.602 3.731 8.333 8.333 8.333 1.466 0 2.841-.381 4.038-1.046-2.561-1.421-4.296-4.15-4.296-7.286z" fill="#fd4755"/><path d="m411.361 148h-14.436c-1.222 0-2.352.652-2.963 1.711l-7.218 12.502c-.611 1.059-.611 2.363 0 3.421l7.218 12.502c.611 1.059 1.741 1.711 2.963 1.711h14.436c1.222 0 2.352-.652 2.963-1.711l7.218-12.502c.611-1.059.611-2.363 0-3.421l-7.218-12.502c-.612-1.059-1.741-1.711-2.963-1.711z" fill="#fe646f"/><path d="m404.676 178.136-7.218-12.502c-.611-1.059-.611-2.363 0-3.421l7.218-12.502c.611-1.059 1.741-1.711 2.963-1.711h-10.715c-1.222 0-2.352.652-2.963 1.711l-7.218 12.502c-.611 1.059-.611 2.363 0 3.421l7.218 12.502c.611 1.059 1.741 1.711 2.963 1.711h10.715c-1.222 0-2.351-.652-2.963-1.711z" fill="#fd4755"/><path d="m350.659 44.033h-11.318c-.958 0-1.844.511-2.323 1.341l-5.659 9.801c-.479.83-.479 1.852 0 2.682l5.659 9.801c.479.83 1.365 1.341 2.323 1.341h11.318c.958 0 1.844-.511 2.323-1.341l5.659-9.801c.479-.83.479-1.852 0-2.682l-5.659-9.801c-.479-.83-1.365-1.341-2.323-1.341z" fill="#fe9901"/><path d="m74.659 214.033h-11.318c-.958 0-1.844.511-2.323 1.341l-5.659 9.801c-.479.83-.479 1.852 0 2.682l5.659 9.801c.479.83 1.365 1.341 2.323 1.341h11.318c.958 0 1.844-.511 2.323-1.341l5.659-9.801c.479-.83.479-1.852 0-2.682l-5.659-9.801c-.479-.83-1.365-1.341-2.323-1.341z" fill="#fe646f"/><path d="m70.018 237.659-5.659-9.801c-.479-.83-.479-1.852 0-2.682l5.659-9.801c.479-.83 1.365-1.341 2.323-1.341h-9c-.958 0-1.844.511-2.323 1.341l-5.659 9.801c-.479.83-.479 1.853 0 2.682l5.659 9.801c.479.83 1.365 1.341 2.323 1.341h9c-.958 0-1.844-.511-2.323-1.341z" fill="#fd4755"/></g><g fill="#fb8801"><path d="m124.537 417h-29.037c-6.341 0-11.5-5.159-11.5-11.5s5.159-11.5 11.5-11.5v-1h-49.646c11.041 18.375 24.433 35.173 39.746 50l4.556 1h34.381c7.444 0 13.5-6.056 13.5-13.5s-6.056-13.5-13.5-13.5z"/><path d="m213.5 393v1c6.341 0 11.5 5.159 11.5 11.5s-5.159 11.5-11.5 11.5h-17.898c-7.444 0-13.5 6.056-13.5 13.5s6.056 13.5 13.5 13.5h44.898c6.341 0 11.5 5.159 11.5 11.5s-5.159 11.5-11.5 11.5h-123.297l-1.301 1c39.702 27.729 87.997 44 140.099 44 34.494 0 67.318-7.135 97.088-20v-1h-41.589c-6.341 0-11.5-5.159-11.5-11.5s5.159-11.5 11.5-11.5h63.037c7.444 0 13.5-6.056 13.5-13.5s-6.056-13.5-13.5-13.5h-29.037c-6.341 0-11.5-5.159-11.5-11.5s5.159-11.5 11.5-11.5h102.153l2.051-1c5.935-7.653 11.432-15.663 16.442-24z"/></g><path d="m174.73 233c-1.431-8.51-8.813-15-17.73-15-2.325 0-4.54.456-6.581 1.259-3.281-4.398-8.51-7.259-14.419-7.259-9.941 0-18 8.059-18 18 0 1.024.106 2.022.27 3h2.73c3.314 0 6 2.686 6 6v23.765c0 3.65 2.813 6.834 6.462 6.943 3.776.113 6.872-2.914 6.872-6.664v-7.721c0-3.65 2.813-6.834 6.462-6.943 3.775-.113 6.872 2.914 6.872 6.664v18.609c0 3.65 2.813 6.834 6.462 6.943 3.776.113 6.872-2.914 6.872-6.664v-34.932c0-3.314 2.686-6 6-6z" fill="#fe9901"/><g fill="#fb8801"><path d="m135.27 262.765v-23.765c0-3.314-2.686-6-6-6-1.618 0-2.989-1.281-3-2.899 0-.034 0-.067 0-.101 0-8.525 5.933-15.65 13.892-17.511-1.336-.318-2.728-.489-4.162-.489-9.941 0-18 8.059-18 18 0 1.024.106 2.022.27 3h2.73c3.314 0 6 2.686 6 6v23.765c0 3.64 2.797 6.818 6.435 6.942 1.674.057 3.216-.505 4.415-1.474-1.578-1.292-2.58-3.294-2.58-5.468z"/><path d="m161.937 273.654v-18.609c0-3.75-3.096-6.777-6.872-6.664-1.476.044-2.81.597-3.881 1.475 1.514 1.222 2.483 3.092 2.483 5.189v18.609c0 3.65 2.813 6.834 6.462 6.943 1.664.05 3.195-.511 4.389-1.475-1.579-1.292-2.581-3.294-2.581-5.468z"/></g><circle cx="424.5" cy="213.5" fill="#fe646f" r="10.5"/><path d="m422 213.5c0-4.382 2.686-8.133 6.5-9.707-1.233-.509-2.583-.793-4-.793-5.799 0-10.5 4.701-10.5 10.5s4.701 10.5 10.5 10.5c1.417 0 2.767-.284 4-.793-3.814-1.574-6.5-5.325-6.5-9.707z" fill="#fd4755"/><circle cx="297.5" cy="99.5" fill="#fe9901" r="10.5"/><circle cx="106.5" cy="194.5" fill="#fe646f" r="10.5"/><g fill="#fd4755"><path d="m104 194.5c0-4.382 2.686-8.133 6.5-9.707-1.233-.509-2.583-.793-4-.793-5.799 0-10.5 4.701-10.5 10.5s4.701 10.5 10.5 10.5c1.417 0 2.767-.284 4-.793-3.814-1.574-6.5-5.325-6.5-9.707z"/><path d="m83 405.5c0 6.904 5.596 12.5 12.5 12.5h29.037c6.904 0 12.5 5.596 12.5 12.5s-5.596 12.5-12.5 12.5h-38.95c9.409 9.113 19.545 17.478 30.315 25h124.598c6.904 0 12.5-5.596 12.5-12.5s-5.596-12.5-12.5-12.5h-44.898c-6.904 0-12.5-5.596-12.5-12.5s5.596-12.5 12.5-12.5h17.898c6.904 0 12.5-5.596 12.5-12.5s-5.596-12.5-12.5-12.5h-118c-6.904 0-12.5 5.596-12.5 12.5z"/><path d="m449.705 417h-104.205c-6.904 0-12.5 5.596-12.5 12.5s5.596 12.5 12.5 12.5h29.037c6.904 0 12.5 5.596 12.5 12.5s-5.596 12.5-12.5 12.5h-63.037c-6.904 0-12.5 5.596-12.5 12.5s5.596 12.5 12.5 12.5h41.588c38.233-16.523 71.42-42.507 96.617-75z"/><path d="m308 419.5c0-6.904-5.596-12.5-12.5-12.5h-37.585c-6.883 0-12.786 5.385-12.912 12.266-.129 7.011 5.516 12.734 12.497 12.734h38c6.904 0 12.5-5.596 12.5-12.5z"/></g></g></svg>